<?xml version="1.0" encoding="UTF-8" standalone="no"?>
<!-- Created with Inkscape (http://www.inkscape.org/) -->

<svg
   xmlns:dc="http://purl.org/dc/elements/1.1/"
   xmlns:cc="http://creativecommons.org/ns#"
   xmlns:rdf="http://www.w3.org/1999/02/22-rdf-syntax-ns#"
   xmlns:svg="http://www.w3.org/2000/svg"
   xmlns="http://www.w3.org/2000/svg"
   xmlns:sodipodi="http://sodipodi.sourceforge.net/DTD/sodipodi-0.dtd"
   xmlns:inkscape="http://www.inkscape.org/namespaces/inkscape"
   width="41.42852mm"
   height="61.642475mm"
   viewBox="0 0 41.42852 61.642475"
   version="1.1"
   id="svg8"
   inkscape:version="0.92.3 (2405546, 2018-03-11)"
   sodipodi:docname="neuron_canonical_form1.svg">
  <defs
     id="defs2" />
  <sodipodi:namedview
     id="base"
     pagecolor="#ffffff"
     bordercolor="#666666"
     borderopacity="1.0"
     inkscape:pageopacity="0.0"
     inkscape:pageshadow="2"
     inkscape:zoom="2.8"
     inkscape:cx="108.43521"
     inkscape:cy="113.85078"
     inkscape:document-units="mm"
     inkscape:current-layer="text230"
     showgrid="false"
     inkscape:snap-global="false"
     inkscape:window-width="1280"
     inkscape:window-height="1024"
     inkscape:window-x="629"
     inkscape:window-y="135"
     inkscape:window-maximized="0"
     fit-margin-top="0"
     fit-margin-left="0"
     fit-margin-right="0"
     fit-margin-bottom="0" />
  <metadata
     id="metadata5">
    <rdf:RDF>
      <cc:Work
         rdf:about="">
        <dc:format>image/svg+xml</dc:format>
        <dc:type
           rdf:resource="http://purl.org/dc/dcmitype/StillImage" />
        <dc:title></dc:title>
      </cc:Work>
    </rdf:RDF>
  </metadata>
  <g
     inkscape:label="Layer 1"
     inkscape:groupmode="layer"
     id="layer1"
     transform="translate(-244.1703,-209.98043)">
    <rect
       style="fill:#ffffff;stroke:#000000;stroke-width:0.26458332"
       id="rect186"
       width="2.5040922"
       height="26.836309"
       x="252.96056"
       y="210.11272" />
    <path
       inkscape:connector-curvature="0"
       id="path196"
       d="m 253.0078,227.59412 c 2.5041,0 2.5041,0 2.5041,0"
       style="fill:none;stroke:#000000;stroke-width:0.26458332px;stroke-linecap:butt;stroke-linejoin:miter;stroke-opacity:1" />
    <path
       style="fill:none;stroke:#000000;stroke-width:0.26458332px;stroke-linecap:butt;stroke-linejoin:miter;stroke-opacity:1"
       d="m 253.0078,218.28646 c 2.5041,0 2.5041,0 2.5041,0"
       id="path198"
       inkscape:connector-curvature="0" />
    <g
       aria-label="Ded"
       style="font-style:normal;font-weight:normal;font-size:7.64014816px;line-height:1.25;font-family:sans-serif;letter-spacing:0px;word-spacing:0px;fill:#000000;fill-opacity:1;stroke:none;stroke-width:0.1910037"
       id="text222">
      <path
         d="m 244.74779,213.8581 v 1.73246 h 0.3641 q 0.46109,0 0.67448,-0.20891 0.21488,-0.20891 0.21488,-0.65956 0,-0.44766 -0.21488,-0.65508 -0.21339,-0.20891 -0.67448,-0.20891 z m -0.30143,-0.24771 h 0.61927 q 0.64762,0 0.95054,0.27009 0.30292,0.2686 0.30292,0.84161 0,0.576 -0.30441,0.84609 -0.30441,0.27009 -0.94905,0.27009 h -0.61927 z"
         style="font-size:3.05605912px;stroke-width:0.1910037"
         id="path3797" />
      <path
         d="m 248.2157,214.93399 v 0.1343 h -1.26242 q 0.0179,0.28352 0.17011,0.43274 0.1537,0.14773 0.42678,0.14773 0.15817,0 0.3059,-0.0388 0.14922,-0.0388 0.29546,-0.11639 v 0.25965 q -0.14773,0.0627 -0.30292,0.0955 -0.15519,0.0328 -0.31486,0.0328 -0.39991,0 -0.63419,-0.23279 -0.23278,-0.23279 -0.23278,-0.62971 0,-0.41036 0.22084,-0.65061 0.22235,-0.24174 0.59838,-0.24174 0.33724,0 0.53272,0.21786 0.19698,0.21637 0.19698,0.58943 z m -0.27457,-0.0806 q -0.003,-0.22533 -0.12684,-0.35962 -0.12236,-0.1343 -0.3253,-0.1343 -0.2298,0 -0.36858,0.12982 -0.13728,0.12982 -0.15817,0.36559 z"
         style="font-size:3.05605912px;stroke-width:0.1910037"
         id="path3799" />
      <path
         d="m 249.76611,214.42067 v -0.90429 h 0.27457 v 2.32189 h -0.27457 v -0.25069 q -0.0865,0.14922 -0.21936,0.22234 -0.13131,0.0716 -0.31635,0.0716 -0.30292,0 -0.49392,-0.24174 -0.18951,-0.24174 -0.18951,-0.63569 0,-0.39394 0.18951,-0.63568 0.191,-0.24174 0.49392,-0.24174 0.18504,0 0.31635,0.0731 0.13281,0.0716 0.21936,0.22085 z m -0.93562,0.58345 q 0,0.30292 0.12385,0.47602 0.12535,0.17161 0.34321,0.17161 0.21787,0 0.34321,-0.17161 0.12535,-0.1731 0.12535,-0.47602 0,-0.30292 -0.12535,-0.47452 -0.12534,-0.1731 -0.34321,-0.1731 -0.21786,0 -0.34321,0.1731 -0.12385,0.1716 -0.12385,0.47452 z"
         style="font-size:3.05605912px;stroke-width:0.1910037"
         id="path3801" />
    </g>
    <g
       aria-label="Dem"
       style="font-style:normal;font-weight:normal;font-size:7.64014816px;line-height:1.25;font-family:sans-serif;letter-spacing:0px;word-spacing:0px;fill:#000000;fill-opacity:1;stroke:none;stroke-width:0.1910037"
       id="text226">
      <path
         d="m 244.74779,222.07908 v 1.73246 h 0.3641 q 0.46109,0 0.67448,-0.20891 0.21488,-0.20891 0.21488,-0.65956 0,-0.44766 -0.21488,-0.65508 -0.21339,-0.20891 -0.67448,-0.20891 z m -0.30143,-0.24771 h 0.61927 q 0.64762,0 0.95054,0.27009 0.30292,0.2686 0.30292,0.84161 0,0.576 -0.30441,0.84609 -0.30441,0.27009 -0.94905,0.27009 h -0.61927 z"
         style="font-size:3.05605912px;stroke-width:0.1910037"
         id="path3790" />
      <path
         d="m 248.2157,223.15497 v 0.1343 h -1.26242 q 0.0179,0.28352 0.17011,0.43274 0.1537,0.14773 0.42678,0.14773 0.15817,0 0.3059,-0.0388 0.14922,-0.0388 0.29546,-0.11639 v 0.25964 q -0.14773,0.0627 -0.30292,0.0955 -0.15519,0.0328 -0.31486,0.0328 -0.39991,0 -0.63419,-0.23278 -0.23278,-0.23279 -0.23278,-0.62972 0,-0.41036 0.22084,-0.6506 0.22235,-0.24174 0.59838,-0.24174 0.33724,0 0.53272,0.21786 0.19698,0.21637 0.19698,0.58943 z m -0.27457,-0.0806 q -0.003,-0.22533 -0.12684,-0.35963 -0.12236,-0.1343 -0.3253,-0.1343 -0.2298,0 -0.36858,0.12983 -0.13728,0.12982 -0.15817,0.36559 z"
         style="font-size:3.05605912px;stroke-width:0.1910037"
         id="path3792" />
      <path
         d="m 249.96756,222.70879 q 0.10296,-0.18503 0.24621,-0.27307 0.14326,-0.088 0.33725,-0.088 0.26113,0 0.40289,0.18354 0.14176,0.18205 0.14176,0.51929 v 1.00874 h -0.27606 v -0.99979 q 0,-0.24024 -0.0851,-0.35663 -0.0851,-0.1164 -0.25965,-0.1164 -0.21338,0 -0.33724,0.14176 -0.12385,0.14176 -0.12385,0.38649 v 0.94457 h -0.27606 v -0.99979 q 0,-0.24173 -0.0851,-0.35663 -0.0851,-0.1164 -0.26263,-0.1164 -0.2104,0 -0.33425,0.14326 -0.12386,0.14176 -0.12386,0.38499 v 0.94457 h -0.27606 v -1.67128 h 0.27606 v 0.25964 q 0.094,-0.1537 0.22533,-0.22681 0.13131,-0.0731 0.31187,-0.0731 0.18205,0 0.30889,0.0925 0.12833,0.0925 0.18951,0.26859 z"
         style="font-size:3.05605912px;stroke-width:0.1910037"
         id="path3794" />
    </g>
    <g
       aria-label="Dep"
       style="font-style:normal;font-weight:normal;font-size:7.64014816px;line-height:1.25;font-family:sans-serif;letter-spacing:0px;word-spacing:0px;fill:#000000;fill-opacity:1;stroke:none;stroke-width:0.1910037"
       id="text230">
      <path
         d="m 244.74779,231.19776 v 1.73246 h 0.3641 q 0.46109,0 0.67448,-0.20891 0.21488,-0.20891 0.21488,-0.65956 0,-0.44766 -0.21488,-0.65508 -0.21339,-0.20891 -0.67448,-0.20891 z m -0.30143,-0.24771 h 0.61927 q 0.64762,0 0.95054,0.27009 0.30292,0.2686 0.30292,0.84161 0,0.576 -0.30441,0.84609 -0.30441,0.27009 -0.94905,0.27009 h -0.61927 z"
         style="font-size:3.05605912px;stroke-width:0.1910037"
         id="path3783" />
      <path
         d="m 248.2157,232.27365 v 0.1343 h -1.26242 q 0.0179,0.28352 0.17011,0.43274 0.1537,0.14773 0.42678,0.14773 0.15817,0 0.3059,-0.0388 0.14922,-0.0388 0.29546,-0.11639 v 0.25965 q -0.14773,0.0627 -0.30292,0.0955 -0.15519,0.0328 -0.31486,0.0328 -0.39991,0 -0.63419,-0.23279 -0.23278,-0.23278 -0.23278,-0.62971 0,-0.41036 0.22084,-0.65061 0.22235,-0.24174 0.59838,-0.24174 0.33724,0 0.53272,0.21786 0.19698,0.21638 0.19698,0.58943 z m -0.27457,-0.0806 q -0.003,-0.22532 -0.12684,-0.35962 -0.12236,-0.1343 -0.3253,-0.1343 -0.2298,0 -0.36858,0.12982 -0.13728,0.12982 -0.15817,0.36559 z"
         style="font-size:3.05605912px;stroke-width:0.1910037"
         id="path3785" />
      <path
         d="m 248.93196,232.92724 v 0.88638 h -0.27606 v -2.30697 h 0.27606 v 0.25368 q 0.0865,-0.14922 0.21786,-0.22085 0.13281,-0.0731 0.31635,-0.0731 0.30442,0 0.49393,0.24174 0.191,0.24174 0.191,0.63568 0,0.39395 -0.191,0.63569 -0.18951,0.24174 -0.49393,0.24174 -0.18354,0 -0.31635,-0.0716 -0.13131,-0.0731 -0.21786,-0.22234 z m 0.93413,-0.58346 q 0,-0.30292 -0.12535,-0.47452 -0.12385,-0.1731 -0.34172,-0.1731 -0.21786,0 -0.3432,0.1731 -0.12386,0.1716 -0.12386,0.47452 0,0.30292 0.12386,0.47602 0.12534,0.17161 0.3432,0.17161 0.21787,0 0.34172,-0.17161 0.12535,-0.1731 0.12535,-0.47602 z"
         style="font-size:3.05605912px;stroke-width:0.1910037"
         id="path3787" />
    </g>
    <g
       aria-label="S"
       style="font-style:normal;font-weight:normal;font-size:7.64014816px;line-height:1.25;font-family:sans-serif;letter-spacing:0px;word-spacing:0px;fill:#000000;fill-opacity:1;stroke:none;stroke-width:0.1910037"
       id="text234">
      <path
         d="m 245.78189,239.85836 v 0.29397 q -0.1716,-0.0821 -0.32381,-0.12236 -0.1522,-0.0403 -0.29397,-0.0403 -0.24621,0 -0.38051,0.0955 -0.13281,0.0955 -0.13281,0.27158 0,0.14773 0.088,0.22383 0.0895,0.0746 0.33724,0.12087 l 0.18205,0.0373 q 0.33725,0.0642 0.49691,0.22682 0.16116,0.16116 0.16116,0.43274 0,0.32381 -0.21786,0.49094 -0.21637,0.16713 -0.63569,0.16713 -0.15817,0 -0.33724,-0.0358 -0.17757,-0.0358 -0.36857,-0.10594 v -0.31038 q 0.18354,0.10296 0.35962,0.15519 0.17608,0.0522 0.34619,0.0522 0.25816,0 0.39843,-0.10147 0.14026,-0.10147 0.14026,-0.28949 0,-0.16414 -0.10147,-0.25666 -0.1,-0.0925 -0.32978,-0.13877 l -0.18354,-0.0358 q -0.33724,-0.0671 -0.48795,-0.2104 -0.15072,-0.14325 -0.15072,-0.39842 0,-0.29546 0.20742,-0.46557 0.20891,-0.17012 0.5745,-0.17012 0.15669,0 0.31934,0.0284 0.16265,0.0283 0.33276,0.085 z"
         style="font-size:3.05605912px;stroke-width:0.1910037"
         id="path3780" />
    </g>
    <circle
       id="path115"
       cx="254.19749"
       cy="241.536"
       r="4.8776689"
       style="fill:#ffffff;stroke:#000000;stroke-width:0.26458332" />
  </g>
</svg>
