<?xml version="1.0" encoding="UTF-8" standalone="no"?>
<!-- Created with Inkscape (http://www.inkscape.org/) -->

<svg
   xmlns:dc="http://purl.org/dc/elements/1.1/"
   xmlns:cc="http://creativecommons.org/ns#"
   xmlns:rdf="http://www.w3.org/1999/02/22-rdf-syntax-ns#"
   xmlns:svg="http://www.w3.org/2000/svg"
   xmlns="http://www.w3.org/2000/svg"
   xmlns:sodipodi="http://sodipodi.sourceforge.net/DTD/sodipodi-0.dtd"
   xmlns:inkscape="http://www.inkscape.org/namespaces/inkscape"
   width="41.42852mm"
   height="61.642475mm"
   viewBox="0 0 41.42852 61.642475"
   version="1.1"
   id="svg8"
   inkscape:version="0.92.3 (2405546, 2018-03-11)"
   sodipodi:docname="neuron_canonical_form3.svg">
  <defs
     id="defs2" />
  <sodipodi:namedview
     id="base"
     pagecolor="#ffffff"
     bordercolor="#666666"
     borderopacity="1.0"
     inkscape:pageopacity="0.0"
     inkscape:pageshadow="2"
     inkscape:zoom="2.8"
     inkscape:cx="165.57807"
     inkscape:cy="134.12534"
     inkscape:document-units="mm"
     inkscape:current-layer="layer1"
     showgrid="false"
     inkscape:snap-global="false"
     inkscape:window-width="1280"
     inkscape:window-height="1024"
     inkscape:window-x="629"
     inkscape:window-y="135"
     inkscape:window-maximized="0"
     fit-margin-top="0"
     fit-margin-left="0"
     fit-margin-right="0"
     fit-margin-bottom="0" />
  <metadata
     id="metadata5">
    <rdf:RDF>
      <cc:Work
         rdf:about="">
        <dc:format>image/svg+xml</dc:format>
        <dc:type
           rdf:resource="http://purl.org/dc/dcmitype/StillImage" />
        <dc:title></dc:title>
      </cc:Work>
    </rdf:RDF>
  </metadata>
  <g
     inkscape:label="Layer 1"
     inkscape:groupmode="layer"
     id="layer1"
     transform="translate(-244.1703,-209.98043)">
    <path
       style="fill:none;stroke:#000000;stroke-width:0.26458332px;stroke-linecap:butt;stroke-linejoin:miter;stroke-opacity:1"
       d="m 254.69378,252.3205 c -0.76939,0.4542 -0.42431,2.28188 -0.29552,3.06345 0.13223,0.77843 0.0995,1.56278 0.13459,2.34634 -0.0814,1.97217 -0.90331,4.24989 -0.92006,6.23142 -0.0284,0.90086 0.23819,1.60508 0.20557,2.18886 0.0588,1.22552 0.17504,2.63774 0.429,3.84387 -0.003,-0.1197 0.0266,-0.36894 -0.0584,-0.49221"
       id="path127"
       inkscape:connector-curvature="0"
       sodipodi:nodetypes="ccccccc" />
    <path
       style="fill:#000000;stroke:#000000;stroke-width:0.26458332px;stroke-linecap:butt;stroke-linejoin:miter;stroke-opacity:1"
       d="m 254.14174,269.21875 -1.46466,2.2206 2.69308,0.0473 z"
       id="path180"
       inkscape:connector-curvature="0" />
    <path
       style="fill:#000000;stroke:#000000;stroke-width:0.26458332px;stroke-linecap:butt;stroke-linejoin:miter;stroke-opacity:1"
       d="m 253.24405,245.31175 v 5.66964 l 0.99218,3.73252 1.27567,-3.68527 v -5.85863 z"
       id="path182"
       inkscape:connector-curvature="0" />
    <rect
       style="fill:#ffffff;stroke:#000000;stroke-width:0.26458332"
       id="rect184"
       width="26.600073"
       height="2.4568453"
       x="258.86646"
       y="240.25633" />
    <path
       style="fill:none;stroke:#000000;stroke-width:0.26458332px;stroke-linecap:butt;stroke-linejoin:miter;stroke-opacity:1"
       d="m 268.07961,240.20907 c 0,2.5041 0,2.5041 0,2.5041"
       id="path192"
       inkscape:connector-curvature="0" />
    <path
       inkscape:connector-curvature="0"
       id="path194"
       d="m 277.38727,240.20907 c 0,2.5041 0,2.5041 0,2.5041"
       style="fill:none;stroke:#000000;stroke-width:0.26458332px;stroke-linecap:butt;stroke-linejoin:miter;stroke-opacity:1" />
    <rect
       style="fill:#ffffff;stroke:#000000;stroke-width:0.26458332"
       id="rect186"
       width="2.5040922"
       height="26.836309"
       x="252.96056"
       y="210.11272" />
    <path
       inkscape:connector-curvature="0"
       id="path196"
       d="m 253.0078,227.59412 c 2.5041,0 2.5041,0 2.5041,0"
       style="fill:none;stroke:#000000;stroke-width:0.26458332px;stroke-linecap:butt;stroke-linejoin:miter;stroke-opacity:1" />
    <path
       style="fill:none;stroke:#000000;stroke-width:0.26458332px;stroke-linecap:butt;stroke-linejoin:miter;stroke-opacity:1"
       d="m 253.0078,218.28646 c 2.5041,0 2.5041,0 2.5041,0"
       id="path198"
       inkscape:connector-curvature="0" />
    <g
       aria-label="Dbp"
       style="font-style:normal;font-weight:normal;font-size:7.64014816px;line-height:1.25;font-family:sans-serif;letter-spacing:0px;word-spacing:0px;fill:#000000;fill-opacity:1;stroke:none;stroke-width:0.1910037"
       id="text202">
      <path
         d="m 260.29207,237.05639 v 1.73246 h 0.3641 q 0.46109,0 0.67448,-0.20891 0.21488,-0.20891 0.21488,-0.65956 0,-0.44766 -0.21488,-0.65508 -0.21339,-0.20891 -0.67448,-0.20891 z m -0.30143,-0.24771 h 0.61927 q 0.64762,0 0.95054,0.27009 0.30292,0.2686 0.30292,0.84161 0,0.576 -0.30441,0.84609 -0.30441,0.27009 -0.94905,0.27009 h -0.61927 z"
         style="font-size:3.05605912px;stroke-width:0.1910037"
         id="path4152" />
      <path
         d="m 263.53018,238.20241 q 0,-0.30292 -0.12535,-0.47452 -0.12385,-0.1731 -0.34172,-0.1731 -0.21786,0 -0.34321,0.1731 -0.12385,0.1716 -0.12385,0.47452 0,0.30292 0.12385,0.47602 0.12535,0.1716 0.34321,0.1716 0.21787,0 0.34172,-0.1716 0.12535,-0.1731 0.12535,-0.47602 z m -0.93413,-0.58346 q 0.0865,-0.14922 0.21786,-0.22084 0.13281,-0.0731 0.31635,-0.0731 0.30442,0 0.49393,0.24174 0.191,0.24174 0.191,0.63568 0,0.39395 -0.191,0.63569 -0.18951,0.24173 -0.49393,0.24173 -0.18354,0 -0.31635,-0.0716 -0.13131,-0.0731 -0.21786,-0.22234 v 0.25069 h -0.27606 v -2.32189 h 0.27606 z"
         style="font-size:3.05605912px;stroke-width:0.1910037"
         id="path4154" />
      <path
         d="m 264.53593,238.78587 v 0.88637 h -0.27606 v -2.30696 h 0.27606 v 0.25367 q 0.0865,-0.14922 0.21786,-0.22084 0.13281,-0.0731 0.31635,-0.0731 0.30442,0 0.49393,0.24174 0.191,0.24174 0.191,0.63568 0,0.39395 -0.191,0.63569 -0.18951,0.24173 -0.49393,0.24173 -0.18354,0 -0.31635,-0.0716 -0.13131,-0.0731 -0.21786,-0.22234 z m 0.93413,-0.58346 q 0,-0.30292 -0.12535,-0.47452 -0.12385,-0.1731 -0.34172,-0.1731 -0.21786,0 -0.3432,0.1731 -0.12386,0.1716 -0.12386,0.47452 0,0.30292 0.12386,0.47602 0.12534,0.1716 0.3432,0.1716 0.21787,0 0.34172,-0.1716 0.12535,-0.1731 0.12535,-0.47602 z"
         style="font-size:3.05605912px;stroke-width:0.1910037"
         id="path4156" />
    </g>
    <g
       aria-label="Dbm"
       style="font-style:normal;font-weight:normal;font-size:7.64014816px;line-height:1.25;font-family:sans-serif;letter-spacing:0px;word-spacing:0px;fill:#000000;fill-opacity:1;stroke:none;stroke-width:0.1910037"
       id="text206">
      <path
         d="m 269.93046,237.05639 v 1.73246 h 0.36411 q 0.46109,0 0.67448,-0.20891 0.21488,-0.20891 0.21488,-0.65956 0,-0.44766 -0.21488,-0.65508 -0.21339,-0.20891 -0.67448,-0.20891 z m -0.30142,-0.24771 h 0.61927 q 0.64762,0 0.95054,0.27009 0.30292,0.2686 0.30292,0.84161 0,0.576 -0.30441,0.84609 -0.30442,0.27009 -0.94905,0.27009 h -0.61927 z"
         style="font-size:3.05605912px;stroke-width:0.1910037"
         id="path4166" />
      <path
         d="m 273.16857,238.20241 q 0,-0.30292 -0.12534,-0.47452 -0.12386,-0.1731 -0.34172,-0.1731 -0.21786,0 -0.34321,0.1731 -0.12385,0.1716 -0.12385,0.47452 0,0.30292 0.12385,0.47602 0.12535,0.1716 0.34321,0.1716 0.21786,0 0.34172,-0.1716 0.12534,-0.1731 0.12534,-0.47602 z m -0.93412,-0.58346 q 0.0866,-0.14922 0.21786,-0.22084 0.13281,-0.0731 0.31635,-0.0731 0.30441,0 0.49392,0.24174 0.19101,0.24174 0.19101,0.63568 0,0.39395 -0.19101,0.63569 -0.18951,0.24173 -0.49392,0.24173 -0.18354,0 -0.31635,-0.0716 -0.13131,-0.0731 -0.21786,-0.22234 v 0.25069 h -0.27606 v -2.32189 h 0.27606 z"
         style="font-size:3.05605912px;stroke-width:0.1910037"
         id="path4168" />
      <path
         d="m 275.20993,237.6861 q 0.10296,-0.18503 0.24621,-0.27307 0.14325,-0.088 0.33724,-0.088 0.26114,0 0.4029,0.18354 0.14176,0.18205 0.14176,0.51929 v 1.00874 h -0.27606 v -0.99978 q 0,-0.24025 -0.0851,-0.35664 -0.0851,-0.1164 -0.25965,-0.1164 -0.21339,0 -0.33724,0.14176 -0.12385,0.14176 -0.12385,0.38649 v 0.94457 h -0.27606 v -0.99978 q 0,-0.24174 -0.0851,-0.35664 -0.0851,-0.1164 -0.26263,-0.1164 -0.2104,0 -0.33426,0.14326 -0.12385,0.14176 -0.12385,0.38499 v 0.94457 h -0.27606 v -1.67128 h 0.27606 v 0.25964 q 0.094,-0.15369 0.22532,-0.22681 0.13132,-0.0731 0.31188,-0.0731 0.18205,0 0.30889,0.0925 0.12833,0.0925 0.18951,0.26859 z"
         style="font-size:3.05605912px;stroke-width:0.1910037"
         id="path4170" />
    </g>
    <g
       aria-label="Dbd"
       style="font-style:normal;font-weight:normal;font-size:7.64014816px;line-height:1.25;font-family:sans-serif;letter-spacing:0px;word-spacing:0px;fill:#000000;fill-opacity:1;stroke:none;stroke-width:0.1910037"
       id="text210">
      <path
         d="m 279.28538,237.05639 v 1.73246 h 0.3641 q 0.4611,0 0.67449,-0.20891 0.21488,-0.20891 0.21488,-0.65956 0,-0.44766 -0.21488,-0.65508 -0.21339,-0.20891 -0.67449,-0.20891 z m -0.30142,-0.24771 h 0.61927 q 0.64762,0 0.95054,0.27009 0.30292,0.2686 0.30292,0.84161 0,0.576 -0.30441,0.84609 -0.30442,0.27009 -0.94905,0.27009 h -0.61927 z"
         style="font-size:3.05605912px;stroke-width:0.1910037"
         id="path4159" />
      <path
         d="m 282.52349,238.20241 q 0,-0.30292 -0.12534,-0.47452 -0.12386,-0.1731 -0.34172,-0.1731 -0.21786,0 -0.34321,0.1731 -0.12385,0.1716 -0.12385,0.47452 0,0.30292 0.12385,0.47602 0.12535,0.1716 0.34321,0.1716 0.21786,0 0.34172,-0.1716 0.12534,-0.1731 0.12534,-0.47602 z m -0.93412,-0.58346 q 0.0865,-0.14922 0.21786,-0.22084 0.13281,-0.0731 0.31635,-0.0731 0.30441,0 0.49392,0.24174 0.19101,0.24174 0.19101,0.63568 0,0.39395 -0.19101,0.63569 -0.18951,0.24173 -0.49392,0.24173 -0.18354,0 -0.31635,-0.0716 -0.13132,-0.0731 -0.21786,-0.22234 v 0.25069 h -0.27606 v -2.32189 h 0.27606 z"
         style="font-size:3.05605912px;stroke-width:0.1910037"
         id="path4161" />
      <path
         d="m 284.3634,237.61895 v -0.90428 h 0.27456 v 2.32189 h -0.27456 v -0.25069 q -0.0865,0.14922 -0.21936,0.22234 -0.13131,0.0716 -0.31635,0.0716 -0.30292,0 -0.49392,-0.24173 -0.18951,-0.24174 -0.18951,-0.63569 0,-0.39394 0.18951,-0.63568 0.191,-0.24174 0.49392,-0.24174 0.18504,0 0.31635,0.0731 0.13281,0.0716 0.21936,0.22084 z m -0.93562,0.58346 q 0,0.30292 0.12385,0.47602 0.12535,0.1716 0.34321,0.1716 0.21786,0 0.34321,-0.1716 0.12535,-0.1731 0.12535,-0.47602 0,-0.30292 -0.12535,-0.47452 -0.12535,-0.1731 -0.34321,-0.1731 -0.21786,0 -0.34321,0.1731 -0.12385,0.1716 -0.12385,0.47452 z"
         style="font-size:3.05605912px;stroke-width:0.1910037"
         id="path4163" />
    </g>
    <g
       aria-label="Dad"
       style="font-style:normal;font-weight:normal;font-size:7.64014816px;line-height:1.25;font-family:sans-serif;letter-spacing:0px;word-spacing:0px;fill:#000000;fill-opacity:1;stroke:none;stroke-width:0.1910037"
       id="text222">
      <path
         d="m 244.74779,213.8581 v 1.73246 h 0.3641 q 0.46109,0 0.67448,-0.20891 0.21488,-0.20891 0.21488,-0.65956 0,-0.44766 -0.21488,-0.65508 -0.21339,-0.20891 -0.67448,-0.20891 z m -0.30143,-0.24771 h 0.61927 q 0.64762,0 0.95054,0.27009 0.30292,0.2686 0.30292,0.84161 0,0.576 -0.30441,0.84609 -0.30441,0.27009 -0.94905,0.27009 h -0.61927 z"
         style="font-size:3.05605912px;stroke-width:0.1910037"
         id="path4113" />
      <path
         d="m 247.54569,214.99815 q -0.33276,0 -0.46109,0.0761 -0.12833,0.0761 -0.12833,0.25964 0,0.14624 0.0955,0.23279 0.097,0.0851 0.26263,0.0851 0.22831,0 0.36559,-0.16116 0.13878,-0.16266 0.13878,-0.43125 v -0.0612 z m 0.54765,-0.1134 v 0.95352 h -0.27457 v -0.25367 q -0.094,0.1522 -0.23428,0.22532 -0.14027,0.0716 -0.34321,0.0716 -0.25666,0 -0.40887,-0.14326 -0.15071,-0.14474 -0.15071,-0.38648 0,-0.28203 0.18802,-0.42528 0.18951,-0.14325 0.56406,-0.14325 h 0.38499 v -0.0269 q 0,-0.18952 -0.12535,-0.29248 -0.12385,-0.10445 -0.34918,-0.10445 -0.14325,0 -0.27904,0.0343 -0.13579,0.0343 -0.26114,0.10296 v -0.25368 q 0.15071,-0.0582 0.29248,-0.0865 0.14176,-0.0298 0.27606,-0.0298 0.3626,0 0.54167,0.18802 0.17907,0.18802 0.17907,0.57003 z"
         style="font-size:3.05605912px;stroke-width:0.1910037"
         id="path4115" />
      <path
         d="m 249.76014,214.42067 v -0.90429 h 0.27457 v 2.32189 h -0.27457 v -0.25069 q -0.0866,0.14922 -0.21935,0.22234 -0.13132,0.0716 -0.31635,0.0716 -0.30292,0 -0.49393,-0.24174 -0.18951,-0.24174 -0.18951,-0.63569 0,-0.39394 0.18951,-0.63568 0.19101,-0.24174 0.49393,-0.24174 0.18503,0 0.31635,0.0731 0.1328,0.0716 0.21935,0.22085 z m -0.93562,0.58345 q 0,0.30292 0.12386,0.47602 0.12534,0.17161 0.34321,0.17161 0.21786,0 0.34321,-0.17161 0.12534,-0.1731 0.12534,-0.47602 0,-0.30292 -0.12534,-0.47452 -0.12535,-0.1731 -0.34321,-0.1731 -0.21787,0 -0.34321,0.1731 -0.12386,0.1716 -0.12386,0.47452 z"
         style="font-size:3.05605912px;stroke-width:0.1910037"
         id="path4117" />
    </g>
    <g
       aria-label="Dam"
       style="font-style:normal;font-weight:normal;font-size:7.64014816px;line-height:1.25;font-family:sans-serif;letter-spacing:0px;word-spacing:0px;fill:#000000;fill-opacity:1;stroke:none;stroke-width:0.1910037"
       id="text226">
      <path
         d="m 244.74779,222.07908 v 1.73246 h 0.3641 q 0.46109,0 0.67448,-0.20891 0.21488,-0.20891 0.21488,-0.65956 0,-0.44766 -0.21488,-0.65508 -0.21339,-0.20891 -0.67448,-0.20891 z m -0.30143,-0.24771 h 0.61927 q 0.64762,0 0.95054,0.27009 0.30292,0.2686 0.30292,0.84161 0,0.576 -0.30441,0.84609 -0.30441,0.27009 -0.94905,0.27009 h -0.61927 z"
         style="font-size:3.05605912px;stroke-width:0.1910037"
         id="path4120" />
      <path
         d="m 247.54569,223.21913 q -0.33276,0 -0.46109,0.0761 -0.12833,0.0761 -0.12833,0.25964 0,0.14624 0.0955,0.23279 0.097,0.085 0.26263,0.085 0.22831,0 0.36559,-0.16116 0.13878,-0.16265 0.13878,-0.43125 v -0.0612 z m 0.54765,-0.11341 v 0.95353 h -0.27457 v -0.25368 q -0.094,0.15221 -0.23428,0.22533 -0.14027,0.0716 -0.34321,0.0716 -0.25666,0 -0.40887,-0.14325 -0.15071,-0.14474 -0.15071,-0.38648 0,-0.28203 0.18802,-0.42528 0.18951,-0.14326 0.56406,-0.14326 h 0.38499 v -0.0269 q 0,-0.18951 -0.12535,-0.29247 -0.12385,-0.10446 -0.34918,-0.10446 -0.14325,0 -0.27904,0.0343 -0.13579,0.0343 -0.26114,0.10297 v -0.25368 q 0.15071,-0.0582 0.29248,-0.0865 0.14176,-0.0298 0.27606,-0.0298 0.3626,0 0.54167,0.18802 0.17907,0.18802 0.17907,0.57002 z"
         style="font-size:3.05605912px;stroke-width:0.1910037"
         id="path4122" />
      <path
         d="m 249.96159,222.70879 q 0.10296,-0.18503 0.24622,-0.27307 0.14325,-0.088 0.33724,-0.088 0.26114,0 0.4029,0.18354 0.14176,0.18205 0.14176,0.51929 v 1.00874 h -0.27606 v -0.99979 q 0,-0.24024 -0.0851,-0.35663 -0.0851,-0.1164 -0.25965,-0.1164 -0.21338,0 -0.33724,0.14176 -0.12385,0.14176 -0.12385,0.38649 v 0.94457 h -0.27606 v -0.99979 q 0,-0.24173 -0.0851,-0.35663 -0.085,-0.1164 -0.26263,-0.1164 -0.2104,0 -0.33425,0.14326 -0.12386,0.14176 -0.12386,0.38499 v 0.94457 h -0.27606 v -1.67128 h 0.27606 v 0.25964 q 0.094,-0.1537 0.22533,-0.22681 0.13131,-0.0731 0.31187,-0.0731 0.18205,0 0.30889,0.0925 0.12833,0.0925 0.18951,0.26859 z"
         style="font-size:3.05605912px;stroke-width:0.1910037"
         id="path4124" />
    </g>
    <g
       aria-label="Dap"
       style="font-style:normal;font-weight:normal;font-size:7.64014816px;line-height:1.25;font-family:sans-serif;letter-spacing:0px;word-spacing:0px;fill:#000000;fill-opacity:1;stroke:none;stroke-width:0.1910037"
       id="text230">
      <path
         d="m 244.74779,231.19776 v 1.73246 h 0.3641 q 0.46109,0 0.67448,-0.20891 0.21488,-0.20891 0.21488,-0.65956 0,-0.44766 -0.21488,-0.65508 -0.21339,-0.20891 -0.67448,-0.20891 z m -0.30143,-0.24771 h 0.61927 q 0.64762,0 0.95054,0.27009 0.30292,0.2686 0.30292,0.84161 0,0.576 -0.30441,0.84609 -0.30441,0.27009 -0.94905,0.27009 h -0.61927 z"
         style="font-size:3.05605912px;stroke-width:0.1910037"
         id="path4127" />
      <path
         d="m 247.54569,232.33781 q -0.33276,0 -0.46109,0.0761 -0.12833,0.0761 -0.12833,0.25964 0,0.14624 0.0955,0.23279 0.097,0.0851 0.26263,0.0851 0.22831,0 0.36559,-0.16116 0.13878,-0.16266 0.13878,-0.43125 v -0.0612 z m 0.54765,-0.1134 v 0.95352 h -0.27457 v -0.25367 q -0.094,0.1522 -0.23428,0.22532 -0.14027,0.0716 -0.34321,0.0716 -0.25666,0 -0.40887,-0.14326 -0.15071,-0.14474 -0.15071,-0.38648 0,-0.28203 0.18802,-0.42528 0.18951,-0.14325 0.56406,-0.14325 h 0.38499 v -0.0269 q 0,-0.18952 -0.12535,-0.29248 -0.12385,-0.10445 -0.34918,-0.10445 -0.14325,0 -0.27904,0.0343 -0.13579,0.0343 -0.26114,0.10296 v -0.25368 q 0.15071,-0.0582 0.29248,-0.0866 0.14176,-0.0298 0.27606,-0.0298 0.3626,0 0.54167,0.18802 0.17907,0.18802 0.17907,0.57003 z"
         style="font-size:3.05605912px;stroke-width:0.1910037"
         id="path4129" />
      <path
         d="m 248.92599,232.92724 v 0.88638 h -0.27606 v -2.30697 h 0.27606 v 0.25368 q 0.0865,-0.14922 0.21787,-0.22085 0.1328,-0.0731 0.31635,-0.0731 0.30441,0 0.49392,0.24174 0.191,0.24174 0.191,0.63568 0,0.39395 -0.191,0.63569 -0.18951,0.24174 -0.49392,0.24174 -0.18355,0 -0.31635,-0.0716 -0.13132,-0.0731 -0.21787,-0.22234 z m 0.93413,-0.58346 q 0,-0.30292 -0.12535,-0.47452 -0.12385,-0.1731 -0.34171,-0.1731 -0.21787,0 -0.34321,0.1731 -0.12386,0.1716 -0.12386,0.47452 0,0.30292 0.12386,0.47602 0.12534,0.17161 0.34321,0.17161 0.21786,0 0.34171,-0.17161 0.12535,-0.1731 0.12535,-0.47602 z"
         style="font-size:3.05605912px;stroke-width:0.1910037"
         id="path4131" />
    </g>
    <g
       aria-label="S"
       style="font-style:normal;font-weight:normal;font-size:7.64014816px;line-height:1.25;font-family:sans-serif;letter-spacing:0px;word-spacing:0px;fill:#000000;fill-opacity:1;stroke:none;stroke-width:0.1910037"
       id="text234">
      <path
         d="m 245.78189,239.85836 v 0.29397 q -0.1716,-0.0821 -0.32381,-0.12236 -0.1522,-0.0403 -0.29397,-0.0403 -0.24621,0 -0.38051,0.0955 -0.13281,0.0955 -0.13281,0.27158 0,0.14773 0.088,0.22383 0.0895,0.0746 0.33724,0.12087 l 0.18205,0.0373 q 0.33725,0.0642 0.49691,0.22682 0.16116,0.16116 0.16116,0.43274 0,0.32381 -0.21786,0.49094 -0.21637,0.16713 -0.63569,0.16713 -0.15817,0 -0.33724,-0.0358 -0.17757,-0.0358 -0.36857,-0.10594 v -0.31038 q 0.18354,0.10296 0.35962,0.15519 0.17608,0.0522 0.34619,0.0522 0.25816,0 0.39843,-0.10147 0.14026,-0.10147 0.14026,-0.28949 0,-0.16414 -0.10147,-0.25666 -0.1,-0.0925 -0.32978,-0.13877 l -0.18354,-0.0358 q -0.33724,-0.0671 -0.48795,-0.2104 -0.15072,-0.14325 -0.15072,-0.39842 0,-0.29546 0.20742,-0.46557 0.20891,-0.17012 0.5745,-0.17012 0.15669,0 0.31934,0.0284 0.16265,0.0283 0.33276,0.085 z"
         style="font-size:3.05605912px;stroke-width:0.1910037"
         id="path4149" />
    </g>
    <g
       aria-label="Ah"
       style="font-style:normal;font-weight:normal;font-size:7.64014816px;line-height:1.25;font-family:sans-serif;letter-spacing:0px;word-spacing:0px;fill:#000000;fill-opacity:1;stroke:none;stroke-width:0.1910037"
       id="text238">
      <path
         d="m 245.19097,248.63391 -0.40886,1.10871 h 0.81922 z m -0.17011,-0.29695 h 0.34172 l 0.84907,2.22787 h -0.31336 l -0.20295,-0.57151 h -1.00426 l -0.20294,0.57151 h -0.31784 z"
         style="font-size:3.05605912px;stroke-width:0.1910037"
         id="path4144" />
      <path
         d="m 247.91278,249.5561 v 1.00873 h -0.27457 v -0.99978 q 0,-0.23726 -0.0925,-0.35515 -0.0925,-0.11788 -0.27755,-0.11788 -0.22234,0 -0.35067,0.14176 -0.12833,0.14176 -0.12833,0.38648 v 0.94457 h -0.27606 v -2.32188 h 0.27606 v 0.91025 q 0.0985,-0.15072 0.23129,-0.22533 0.1343,-0.0746 0.30889,-0.0746 0.288,0 0.43573,0.17907 0.14773,0.17757 0.14773,0.52377 z"
         style="font-size:3.05605912px;stroke-width:0.1910037"
         id="path4146" />
    </g>
    <g
       aria-label="Af"
       style="font-style:normal;font-weight:normal;font-size:7.64014816px;line-height:1.25;font-family:sans-serif;letter-spacing:0px;word-spacing:0px;fill:#000000;fill-opacity:1;stroke:none;stroke-width:0.1910037"
       id="text242">
      <path
         d="m 245.19097,259.92594 -0.40886,1.10872 h 0.81922 z m -0.17011,-0.29695 h 0.34172 l 0.84907,2.22788 h -0.31336 l -0.20295,-0.57152 h -1.00426 l -0.20294,0.57152 h -0.31784 z"
         style="font-size:3.05605912px;stroke-width:0.1910037"
         id="path4139" />
      <path
         d="m 247.26217,259.53498 v 0.22831 h -0.26263 q -0.14773,0 -0.20592,0.0597 -0.0567,0.0597 -0.0567,0.21488 v 0.14773 h 0.45214 v 0.21339 h -0.45214 v 1.45789 h -0.27606 v -1.45789 h -0.26263 v -0.21339 h 0.26263 v -0.11639 q 0,-0.27905 0.12982,-0.40589 0.12983,-0.12833 0.41186,-0.12833 z"
         style="font-size:3.05605912px;stroke-width:0.1910037"
         id="path4141" />
    </g>
    <g
       aria-label="At"
       style="font-style:normal;font-weight:normal;font-size:7.64014816px;line-height:1.25;font-family:sans-serif;letter-spacing:0px;word-spacing:0px;fill:#000000;fill-opacity:1;stroke:none;stroke-width:0.1910037"
       id="text246">
      <path
         d="m 245.19097,268.66664 -0.40886,1.10871 h 0.81922 z m -0.17011,-0.29695 h 0.34172 l 0.84907,2.22787 h -0.31336 l -0.20295,-0.57151 h -1.00426 l -0.20294,0.57151 h -0.31784 z"
         style="font-size:3.05605912px;stroke-width:0.1910037"
         id="path4134" />
      <path
         d="m 246.74139,268.45176 v 0.47452 h 0.56555 v 0.21339 h -0.56555 v 0.90727 q 0,0.20443 0.0552,0.26263 0.0567,0.0582 0.22831,0.0582 h 0.28203 v 0.2298 h -0.28203 q -0.31784,0 -0.43871,-0.11788 -0.12087,-0.11938 -0.12087,-0.43274 v -0.90727 h -0.20145 v -0.21339 h 0.20145 v -0.47452 z"
         style="font-size:3.05605912px;stroke-width:0.1910037"
         id="path4136" />
    </g>
    <circle
       id="path115"
       cx="254.19749"
       cy="241.536"
       r="4.8776689"
       style="fill:#ffffff;stroke:#000000;stroke-width:0.26458332" />
  </g>
</svg>
